<svg width="68" height="68" viewBox="0 0 68 68" fill="none" xmlns="http://www.w3.org/2000/svg">
<rect width="68" height="68" rx="20" fill="#F7F7F7"/>
<path d="M44.295 38.5617L46.7095 36.0792C46.9762 35.805 46.9762 35.3604 46.7095 35.0862L42.9029 31.1724C42.6151 30.8765 42.6414 30.389 42.9592 30.1276L46.1593 27.4954C46.5925 27.1391 46.4537 26.4287 45.9203 26.272L31.4729 22.0279C30.9578 21.8765 30.4815 22.3662 30.6287 22.8959L34.7565 37.7503C34.9089 38.2987 35.5999 38.4414 35.9464 37.996L38.5065 34.7058C38.7608 34.379 39.2348 34.352 39.5227 34.6479L43.3292 38.5617C43.5959 38.8359 44.0283 38.8359 44.295 38.5617Z" stroke="black" stroke-width="1.58203" stroke-linecap="round" stroke-linejoin="round"/>
<path d="M21.6776 31.0613V29.3101L20.1595 30.1868C20.0715 30.2376 19.9743 30.271 19.8736 30.2842C19.7728 30.2973 19.6706 30.2902 19.5725 30.2638C19.4744 30.2374 19.3822 30.1922 19.3017 30.1302C19.2212 30.0683 19.1538 29.9905 19.1032 29.9024C19.0014 29.7249 18.9745 29.5145 19.0278 29.3169C19.0811 29.1193 19.2104 28.9513 19.3877 28.8491L20.9042 27.9716L19.3877 27.0957C19.2996 27.0451 19.2225 26.9777 19.1606 26.8972C19.0986 26.8167 19.0527 26.7245 19.0263 26.6264C18.9999 26.5283 18.9935 26.4261 19.0066 26.3253C19.0198 26.2246 19.0524 26.1274 19.1032 26.0394C19.154 25.9515 19.2218 25.8748 19.3024 25.813C19.383 25.7513 19.4744 25.7057 19.5725 25.6795C19.6706 25.6533 19.7729 25.6473 19.8736 25.6606C19.9742 25.674 20.0717 25.7071 20.1595 25.7579L21.6776 26.6347V24.882C21.6776 24.6771 21.759 24.4806 21.9039 24.3357C22.0488 24.1908 22.2453 24.1094 22.4502 24.1094C22.6551 24.1094 22.8515 24.1908 22.9964 24.3357C23.1413 24.4806 23.2228 24.6771 23.2228 24.882V26.6347L24.7401 25.7579C24.9174 25.6557 25.1278 25.6274 25.3256 25.6802C25.5233 25.7331 25.6923 25.8623 25.7949 26.0394C25.8457 26.1272 25.8788 26.2247 25.8922 26.3253C25.9055 26.426 25.8988 26.5283 25.8726 26.6264C25.8464 26.7245 25.8015 26.8159 25.7398 26.8965C25.678 26.9771 25.6006 27.0449 25.5127 27.0957L23.9954 27.9716L25.5127 28.8491C25.6896 28.9517 25.819 29.1201 25.8718 29.3176C25.9247 29.5152 25.8969 29.7252 25.7949 29.9024C25.6927 30.0799 25.5241 30.2097 25.3263 30.263C25.1286 30.3163 24.9176 30.2889 24.7401 30.1868L23.2228 29.3101V31.0613C23.2228 31.2662 23.1413 31.4626 22.9964 31.6075C22.8515 31.7524 22.6551 31.8339 22.4502 31.8339C22.2453 31.8339 22.0488 31.7524 21.9039 31.6075C21.759 31.4626 21.6776 31.2662 21.6776 31.0613ZM23.2213 27.525L25.1264 26.4257L23.2235 27.5242L23.2213 27.525Z" fill="#5055B1"/>
<path d="M37.2764 48.3038V46.7257L35.8839 47.5158C35.8032 47.5615 35.714 47.5916 35.6216 47.6035C35.5292 47.6154 35.4355 47.6089 35.3455 47.5851C35.2555 47.5613 35.1708 47.5206 35.097 47.4648C35.0232 47.4089 34.9614 47.3388 34.915 47.2594C34.8216 47.0995 34.7969 46.9099 34.8458 46.7318C34.8947 46.5538 35.0133 46.4024 35.1759 46.3103L36.567 45.5195L35.1759 44.7302C35.0951 44.6846 35.0244 44.6239 34.9676 44.5513C34.9107 44.4788 34.8686 44.3957 34.8444 44.3072C34.8202 44.2188 34.8143 44.1267 34.8264 44.036C34.8385 43.9452 34.8684 43.8576 34.915 43.7783C34.9616 43.6991 35.0238 43.63 35.0977 43.5743C35.1716 43.5187 35.2555 43.4776 35.3455 43.454C35.4354 43.4304 35.5293 43.4249 35.6216 43.437C35.7139 43.449 35.8033 43.4788 35.8839 43.5247L37.2764 44.3147V42.7353C37.2764 42.5506 37.3511 42.3736 37.484 42.243C37.6169 42.1125 37.7971 42.0391 37.9851 42.0391C38.173 42.0391 38.3532 42.1125 38.4861 42.243C38.619 42.3736 38.6937 42.5506 38.6937 42.7353V44.3147L40.0855 43.5247C40.2481 43.4325 40.4412 43.407 40.6226 43.4546C40.8039 43.5023 40.9589 43.6187 41.053 43.7783C41.0997 43.8574 41.1301 43.9453 41.1423 44.036C41.1546 44.1267 41.1483 44.2189 41.1243 44.3072C41.1003 44.3956 41.0592 44.478 41.0025 44.5507C40.9459 44.6233 40.8748 44.6844 40.7942 44.7302L39.4024 45.5195L40.7942 46.3103C40.9565 46.4027 41.0751 46.5545 41.1236 46.7325C41.1721 46.9105 41.1466 47.0997 41.053 47.2594C40.9593 47.4194 40.8047 47.5364 40.6233 47.5844C40.4419 47.6325 40.2484 47.6077 40.0855 47.5158L38.6937 46.7257V48.3038C38.6937 48.4884 38.619 48.6655 38.4861 48.796C38.3532 48.9266 38.173 49 37.9851 49C37.7971 49 37.6169 48.9266 37.484 48.796C37.3511 48.6655 37.2764 48.4884 37.2764 48.3038ZM38.6924 45.117L40.4399 44.1264L38.6944 45.1163L38.6924 45.117Z" fill="#5055B1"/>
<path d="M24.0309 45.8563C23.9177 45.895 23.7971 45.9068 23.6785 45.891C23.5599 45.8751 23.4466 45.8319 23.3476 45.7648C23.2486 45.6977 23.1665 45.6085 23.1078 45.5042C23.0491 45.4 23.0154 45.2835 23.0094 45.164C22.9978 43.9268 23.1624 42.6941 23.4982 41.5033C24.2582 38.6852 25.7403 36.1141 27.798 34.0441C27.869 33.9709 27.9538 33.9125 28.0475 33.8723C28.1412 33.8321 28.242 33.8108 28.3439 33.8097C28.4459 33.8086 28.5471 33.8277 28.6416 33.8659C28.7361 33.9041 28.8222 33.9607 28.8948 34.0323C28.9674 34.1039 29.0251 34.1891 29.0646 34.2831C29.104 34.3772 29.1245 34.4781 29.1248 34.58C29.1251 34.682 29.1053 34.783 29.0663 34.8772C29.0274 34.9715 28.9702 35.0571 28.8981 35.1291C26.2099 37.7567 24.6509 41.3281 24.5518 45.0859C24.5604 45.2534 24.5142 45.4192 24.4202 45.5582C24.3263 45.6972 24.1896 45.8018 24.0309 45.8563Z" fill="black"/>
<path d="M27.6193 45.0874C27.5504 45.111 27.4788 45.1255 27.4063 45.1307C27.3091 45.1411 27.2109 45.1316 27.1175 45.1028C27.0242 45.0741 26.9377 45.0266 26.8632 44.9634C26.7888 44.9001 26.728 44.8224 26.6846 44.7349C26.6412 44.6474 26.616 44.5519 26.6106 44.4544C26.6643 43.2171 26.9644 42.003 27.4935 40.8832C28.0226 39.7635 28.7699 38.7606 29.6917 37.9335C29.8368 37.7919 30.0299 37.7101 30.2325 37.7043C30.4352 37.6985 30.6326 37.7692 30.7856 37.9023C30.856 37.9691 30.9117 38.0498 30.9493 38.1392C30.987 38.2287 31.0056 38.3249 31.0041 38.422C31.0026 38.519 30.981 38.6147 30.9407 38.7029C30.9003 38.7912 30.8421 38.8701 30.7697 38.9347C29.7004 39.9357 28.9064 41.1948 28.4638 42.591C28.2767 43.16 28.1733 43.7533 28.1569 44.3521C28.1568 44.5158 28.1046 44.6752 28.008 44.8074C27.9113 44.9396 27.7752 45.0376 27.6193 45.0874Z" fill="black"/>
</svg>
