<svg xmlns="http://www.w3.org/2000/svg" width="68" height="68" viewBox="0 0 68 68">
    <g data-name="그룹 52451" transform="translate(-472 -892)">
        <rect data-name="사각형 3435" width="68" height="68" rx="20" transform="translate(472 892)" style="fill:#f7f7f7"/>
        <path data-name="패스 42674" d="M505.911 940.999a12.895 12.895 0 1 1 12.895-12.895 12.91 12.91 0 0 1-12.895 12.895zm0-24.393a11.5 11.5 0 1 0 11.5 11.5 11.512 11.512 0 0 0-11.5-11.5z"/>
        <g transform="translate(505.911 928.105)">
            <ellipse data-name="타원 845" cx="4.118" cy="4.005" rx="4.118" ry="4.005" transform="translate(4.77 4.468)" style="fill:#f7f7f7"/>
            <path data-name="패스 42675" d="M5.414 10.145a11.328 11.328 0 0 1-1.419.635l.485 1.308a12.8 12.8 0 0 0 1.591-.712.7.7 0 0 0-.657-1.231z"/>
            <path data-name="패스 42676" d="M10.739 5.825a.7.7 0 0 0 .928-.334 12.775 12.775 0 0 0 .561-1.4l-1.324-.443a11.478 11.478 0 0 1-.5 1.25.7.7 0 0 0 .334.928z"/>
            <path data-name="패스 42677" d="m149.55 348.97 2.9 8.383.167-.059a1.084 1.084 0 0 0 .383-.246l4.6-4.543a1.045 1.045 0 0 0 .243-.368c.022-.057.04-.114.061-.171l-8.35-3z" transform="translate(-149.55 -348.97)" style="fill:#fcdddf"/>
            <circle data-name="타원 846" cx="1.695" cy="1.695" r="1.695" transform="translate(7.132 6.62)" style="fill:#5055b1"/>
        </g>
        <path data-name="패스 42678" d="M77.468 272.385a1.045 1.045 0 0 0 .243-.368 8.876 8.876 0 1 0-5.221 5.158 1.084 1.084 0 0 0 .383-.246l4.6-4.543z" transform="translate(436.487 659.254)" style="fill:#f7f7f7"/>
        <path data-name="패스 42679" d="M80.45 322.64h1.036v2.036h1.959v-2.036h1.029v5.178h-1.029v-2.239h-1.959v2.239H80.45z" transform="translate(418.571 602.84)" style="fill:#5055b1"/>
        <path data-name="패스 42679 - 윤곽선" d="M80.45 322.54h1.036a.1.1 0 0 1 .1.1v1.936h1.759v-1.936a.1.1 0 0 1 .1-.1h1.029a.1.1 0 0 1 .1.1v5.178a.1.1 0 0 1-.1.1h-1.029a.1.1 0 0 1-.1-.1v-2.139h-1.759v2.139a.1.1 0 0 1-.1.1H80.45a.1.1 0 0 1-.1-.1v-5.178a.1.1 0 0 1 .1-.1zm.936.2h-.836v4.978h.836v-2.139a.1.1 0 0 1 .1-.1h1.959a.1.1 0 0 1 .1.1v2.139h.829v-4.978h-.829v1.936a.1.1 0 0 1-.1.1h-1.959a.1.1 0 0 1-.1-.1z" transform="translate(418.571 602.84)" style="fill:#5055b1"/>
        <path data-name="패스 42680" d="M130.97 324.326c0-1.686.944-2.666 2.316-2.666s2.316.986 2.316 2.666-.944 2.708-2.316 2.708-2.316-1.029-2.316-2.708zm3.575 0c0-1.113-.49-1.778-1.259-1.778s-1.259.665-1.259 1.778.49 1.813 1.259 1.813 1.259-.707 1.259-1.813z" transform="translate(373.088 603.722)" style="fill:#5055b1"/>
        <path data-name="패스 42680 - 윤곽선" d="M133.286 321.56c1.468 0 2.416 1.086 2.416 2.766 0 1.706-.948 2.808-2.416 2.808s-2.416-1.1-2.416-2.808c0-1.68.948-2.766 2.416-2.766zm0 5.374c1.346 0 2.216-1.024 2.216-2.608s-.849-2.566-2.216-2.566-2.216.983-2.216 2.566.87 2.608 2.216 2.608zm0-4.486c.838 0 1.359.72 1.359 1.878s-.534 1.913-1.359 1.913-1.359-.751-1.359-1.913.521-1.878 1.359-1.878zm0 3.59c.715 0 1.159-.656 1.159-1.713 0-1.035-.444-1.678-1.159-1.678s-1.159.643-1.159 1.678c0 1.057.444 1.714 1.159 1.714z" transform="translate(373.088 603.722)" style="fill:#5055b1"/>
        <path data-name="패스 42681" d="M182.6 323.51h-1.46v-.86h3.96v.86h-1.47v4.317h-1.036v-4.317z" transform="translate(327.92 602.831)" style="fill:#5055b1"/>
        <path data-name="패스 42681 - 윤곽선" d="M181.14 322.55h3.96a.1.1 0 0 1 .1.1v.86a.1.1 0 0 1-.1.1h-1.37v4.217a.1.1 0 0 1-.1.1h-1.036a.1.1 0 0 1-.1-.1v-4.217h-1.354a.1.1 0 0 1-.1-.1v-.86a.1.1 0 0 1 .1-.1zm3.86.2h-3.76v.66h1.355a.1.1 0 0 1 .1.1v4.217h.836v-4.217a.1.1 0 0 1 .1-.1H185z" transform="translate(327.92 602.831)" style="fill:#5055b1"/>
        <g>
            <path data-name="패스 42682" d="M505.911 916.146a.693.693 0 0 1-.7-.689v-1.115a.7.7 0 0 1 1.4 0v1.115a.693.693 0 0 1-.7.689z"/>
        </g>
        <g>
            <path data-name="패스 42683" d="M213.186 185.349a5.56 5.56 0 0 1 1.188 6.121 1.469 1.469 0 0 1-2.39.493l-5.379-5.355a1.48 1.48 0 0 1 .472-2.4 5.515 5.515 0 0 1 6.11 1.144z" transform="translate(305.382 727.89)" style="fill:none"/>
        </g>
        <g>
            <path data-name="패스 42684" d="M514.329 912.39a5.131 5.131 0 0 1 4.7 7.157.371.371 0 0 1-.342.235.3.3 0 0 1-.221-.095l-6.328-6.3a.308.308 0 0 1-.091-.289.374.374 0 0 1 .225-.278 5.075 5.075 0 0 1 2.054-.43m0-1.39a6.5 6.5 0 0 0-2.609.546 1.741 1.741 0 0 0-.555 2.826l6.328 6.3a1.684 1.684 0 0 0 1.2.5 1.757 1.757 0 0 0 1.615-1.078 6.542 6.542 0 0 0-1.4-7.2 6.467 6.467 0 0 0-4.578-1.892z"/>
        </g>
        <g>
            <path data-name="패스 42685" d="M8.94 186.474a5.375 5.375 0 0 0-1.149 5.916 1.421 1.421 0 0 0 2.31.476l5.2-5.177a1.43 1.43 0 0 0-.457-2.322 5.331 5.331 0 0 0-5.905 1.106z" transform="translate(484.373 726.83)" style="fill:none"/>
        </g>
        <g>
            <path data-name="패스 42686" d="M497.501 912.39a5.082 5.082 0 0 1 2.054.43.372.372 0 0 1 .225.278.308.308 0 0 1-.091.289l-6.328 6.3a.3.3 0 0 1-.221.095.371.371 0 0 1-.342-.235 5.131 5.131 0 0 1 4.7-7.157m0-1.388a6.469 6.469 0 0 0-4.578 1.892 6.541 6.541 0 0 0-1.4 7.2 1.756 1.756 0 0 0 1.615 1.078 1.68 1.68 0 0 0 1.2-.5l6.328-6.3a1.74 1.74 0 0 0-.555-2.826 6.5 6.5 0 0 0-2.609-.546z"/>
        </g>
    </g>
</svg>
