<svg width="68" height="68" viewBox="0 0 68 68" fill="none" xmlns="http://www.w3.org/2000/svg">
<rect width="68" height="68" rx="20" fill="#F7F7F7"/>
<path d="M38.4113 35.5826L34.6038 31.7745C34.5228 31.6929 34.4258 31.6291 34.3188 31.5871C34.2118 31.5451 34.0972 31.5259 33.9824 31.5306C33.865 31.5255 33.7477 31.5445 33.638 31.5864C33.5282 31.6283 33.4282 31.6924 33.3441 31.7745L29.4919 35.6267C29.4039 35.7147 29.3365 35.8211 29.2947 35.9382C29.2529 36.0554 29.2376 36.1804 29.25 36.3042C29.2625 36.428 29.3022 36.5475 29.3665 36.654C29.4308 36.7605 29.5179 36.8514 29.6216 36.9201C29.7907 37.0246 29.9905 37.068 30.1877 37.0431C30.3849 37.0182 30.5676 36.9265 30.7055 36.7833L33.1145 34.3742V45.4964C33.1145 45.7013 33.1959 45.8978 33.3408 46.0426C33.4856 46.1875 33.6821 46.2689 33.887 46.2689C34.0919 46.2689 34.2884 46.1875 34.4333 46.0426C34.5782 45.8978 34.6595 45.7013 34.6595 45.4964V34.2062L37.2697 36.815C37.349 36.897 37.4448 36.9613 37.5508 37.0035C37.6568 37.0458 37.7706 37.0651 37.8846 37.0602C37.9986 37.0575 38.1109 37.0315 38.2144 36.9836C38.318 36.9357 38.4106 36.8671 38.4865 36.782C38.6267 36.6095 38.6968 36.3906 38.6827 36.1687C38.6686 35.9469 38.5715 35.7386 38.4106 35.5852" fill="#5055B1"/>
<path d="M42.6967 44.14H43.6852C43.993 44.1405 44.2979 44.0795 44.5818 43.9606C44.8658 43.8417 45.1231 43.6672 45.3387 43.4474C45.5543 43.2277 45.7238 42.967 45.8373 42.6809C45.9507 42.3947 46.0059 42.0887 45.9995 41.781C45.9995 37.8716 45.995 28.938 45.9943 28.0948V28.0299C45.8891 26.2 45.09 24.4792 43.7599 23.2181C42.4298 21.9571 40.6688 21.2508 38.836 21.2432C37.1174 21.2421 35.4564 21.8625 34.1593 22.99L33.9816 23.1444L33.8052 22.99C32.7728 22.0933 31.5044 21.5125 30.1511 21.3166C28.7979 21.1207 27.4168 21.3181 26.1726 21.8852C24.9284 22.4524 23.8735 23.3654 23.1337 24.5153C22.3939 25.6653 22.0003 27.0037 22 28.3711V41.781C22.0002 42.406 22.2483 43.0055 22.69 43.4478C23.1317 43.89 23.7308 44.139 24.3558 44.14H29.7395C29.8585 44.1465 29.9776 44.1287 30.0895 44.0876C30.2013 44.0465 30.3037 43.9831 30.3902 43.9011C30.4767 43.8192 30.5457 43.7204 30.5928 43.611C30.6399 43.5015 30.6642 43.3836 30.6642 43.2644C30.6642 43.1452 30.6399 43.0273 30.5928 42.9178C30.5457 42.8083 30.4767 42.7096 30.3902 42.6277C30.3037 42.5457 30.2013 42.4823 30.0895 42.4412C29.9776 42.4001 29.8585 42.3822 29.7395 42.3887H24.3558C24.1959 42.3882 24.0427 42.3243 23.9299 42.2109C23.817 42.0976 23.7537 41.9441 23.7539 41.7842V28.3711C23.7538 27.2604 24.0978 26.177 24.7386 25.2699C25.3795 24.3628 26.2856 23.6765 27.3325 23.3054C28.3793 22.9343 29.5154 22.8967 30.5845 23.1978C31.6535 23.4988 32.6031 24.1237 33.3025 24.9865C33.3877 25.0831 33.4925 25.1605 33.6099 25.2135C33.7273 25.2665 33.8547 25.2939 33.9835 25.2939C34.1124 25.2939 34.2397 25.2665 34.3572 25.2135C34.4746 25.1605 34.5794 25.0831 34.6646 24.9865C35.3496 24.1474 36.271 23.5336 37.3091 23.2245C38.3473 22.9155 39.4544 22.9255 40.4867 23.2534C41.5191 23.5812 42.4292 24.2117 43.0988 25.0631C43.7685 25.9144 44.1669 26.9474 44.2423 28.0279C44.2462 28.5923 44.2462 37.1737 44.2462 41.779C44.2462 41.8584 44.2306 41.937 44.2002 42.0104C44.1698 42.0837 44.1253 42.1503 44.0692 42.2065C44.013 42.2626 43.9464 42.3071 43.8731 42.3375C43.7997 42.3679 43.7211 42.3835 43.6417 42.3835H42.6954C42.4714 42.3957 42.2606 42.4933 42.1063 42.6562C41.952 42.8191 41.8661 43.0349 41.8661 43.2592C41.8661 43.4835 41.952 43.6993 42.1063 43.8622C42.2606 44.0251 42.4714 44.1227 42.6954 44.1349" fill="black"/>
<path d="M38.0901 40.1782C37.8906 40.1784 37.6993 40.2577 37.5582 40.3988C37.4171 40.5399 37.3378 40.7311 37.3376 40.9306V47.4079C37.3376 47.6075 37.4169 47.7988 37.558 47.9399C37.6991 48.0811 37.8905 48.1603 38.0901 48.1603C38.2896 48.1603 38.481 48.0811 38.6221 47.9399C38.7632 47.7988 38.8425 47.6075 38.8425 47.4079V40.9306C38.8421 40.7312 38.7628 40.54 38.6217 40.399C38.4807 40.2579 38.2895 40.1786 38.0901 40.1782Z" fill="#5055B1"/>
</svg>
