<svg xmlns="http://www.w3.org/2000/svg" xmlns:xlink="http://www.w3.org/1999/xlink" width="68" height="68" viewBox="0 0 68 68">
  <defs>
    <clipPath id="clip-path">
      <rect id="사각형_4478" data-name="사각형 4478" width="30" height="30" transform="translate(0 0)" fill="none"/>
    </clipPath>
  </defs>
  <g id="그룹_1043" data-name="그룹 1043" transform="translate(-141 -539)">
    <rect id="사각형_3440" data-name="사각형 3440" width="68" height="68" rx="20" transform="translate(141 539)" fill="#f7f7f7"/>
    <g id="그룹_3166" data-name="그룹 3166" transform="translate(160 558)" clip-path="url(#clip-path)">
      <path id="패스_15334" data-name="패스 15334" d="M13.49.75a12.74,12.74,0,1,0,12.74,12.74A12.74,12.74,0,0,0,13.49.75ZM8.622,13.49a4.867,4.867,0,1,1,4.867,4.867A4.867,4.867,0,0,1,8.622,13.49Z" transform="translate(1.521 1.499)" fill="none" stroke="#000" stroke-miterlimit="10" stroke-width="1.5"/>
      <path id="패스_15335" data-name="패스 15335" d="M38.746,37.476a1.27,1.27,0,1,0,1.27,1.27,1.27,1.27,0,0,0-1.27-1.27" transform="translate(-23.734 -23.758)" fill="#5055b1"/>
      <path id="패스_15337" data-name="패스 15337" d="M8.123,17.167a.5.5,0,0,1-.972-.231,11.051,11.051,0,0,1,5.989-7.4.5.5,0,0,1,.43.9,9.988,9.988,0,0,0-5.447,6.729" transform="translate(-2.871 -4.511)" fill="#5055b1"/>
      <path id="패스_15338" data-name="패스 15338" d="M15.511,22.839a.5.5,0,0,1-.944-.329,8.87,8.87,0,0,1,3.2-4.287.5.5,0,0,1,.585.81,7.874,7.874,0,0,0-2.84,3.806" transform="translate(-7.962 -10.451)" fill="#5055b1"/>
    </g>
  </g>
</svg>
